<?xml version="1.0" standalone="no"?>
<!DOCTYPE svg PUBLIC "-//W3C//DTD SVG 20010904//EN"
 "http://www.w3.org/TR/2001/REC-SVG-20010904/DTD/svg10.dtd">
<svg version="1.0" xmlns="http://www.w3.org/2000/svg"
 width="512.000000pt" height="512.000000pt" viewBox="0 0 512.000000 512.000000"
 preserveAspectRatio="xMidYMid meet">

<g transform="translate(0.000000,512.000000) scale(0.100000,-0.100000)"
fill="#dc2626" stroke="none">
<path d="M176 4300 c-67 -26 -131 -91 -156 -158 -17 -44 -20 -77 -20 -198 0
-80 4 -153 10 -163 5 -10 22 -24 39 -30 24 -10 34 -10 59 3 16 8 32 23 36 31
3 9 6 77 6 151 0 151 9 181 63 214 31 19 60 20 1292 20 1232 0 1261 -1 1292
-20 67 -41 64 23 61 -1051 l-3 -971 -37 -34 -38 -34 -553 0 -554 0 -333 -220
c-184 -120 -336 -218 -337 -216 -2 2 17 85 42 185 48 193 48 204 3 235 -19 14
-77 16 -420 16 l-398 0 -38 34 -37 34 -5 702 -5 702 -24 19 c-32 26 -67 24
-97 -6 l-25 -25 3 -707 3 -708 22 -41 c31 -58 79 -103 138 -130 49 -24 54 -24
398 -24 234 0 347 -3 347 -10 0 -6 -18 -84 -41 -173 -27 -106 -39 -174 -35
-196 11 -68 93 -118 155 -94 14 5 184 114 377 241 l351 232 196 0 c192 0 197
-1 197 -20 0 -29 44 -70 75 -70 31 0 75 41 75 70 0 20 5 20 268 20 259 0 269
1 317 24 59 27 107 72 138 130 l22 41 3 718 3 717 585 0 c363 0 592 4 604 10
43 23 40 116 -5 134 -9 3 -280 6 -601 6 l-584 0 0 200 c0 174 -2 206 -20 252
-25 68 -90 132 -158 158 -51 20 -81 20 -1330 20 -1237 -1 -1279 -2 -1326 -20z"/>
<path d="M4436 3669 c-36 -28 -36 -80 0 -108 25 -20 39 -21 231 -21 226 0 248
-5 283 -63 19 -31 20 -57 20 -990 0 -1058 4 -997 -63 -1037 -30 -19 -52 -20
-342 -20 -336 0 -346 -2 -359 -54 -4 -15 12 -95 40 -201 25 -97 44 -179 42
-180 -2 -2 -154 95 -338 215 l-334 220 -630 0 c-608 0 -632 1 -663 20 -39 23
-63 67 -63 115 0 25 -8 43 -25 60 -52 53 -125 13 -125 -69 0 -108 76 -217 178
-256 50 -19 79 -20 668 -20 l616 0 346 -228 c191 -126 357 -234 369 -240 44
-24 106 -8 146 36 33 36 31 79 -12 247 -23 88 -41 165 -41 172 0 10 55 13 255
13 229 0 260 2 307 20 68 26 133 90 158 158 19 51 20 79 20 1027 0 946 -1 976
-20 1027 -26 68 -90 133 -158 158 -47 18 -78 20 -266 20 -201 0 -215 -1 -240
-21z"/>
<path d="M2151 3610 c-232 -40 -253 -48 -272 -99 -16 -40 7 -82 81 -156 l70
-70 -227 -227 -228 -228 -285 285 c-262 261 -289 285 -320 285 -31 0 -58 -24
-322 -287 -158 -158 -292 -299 -298 -314 -22 -53 32 -112 87 -95 10 3 133 121
273 261 l255 255 285 -285 c264 -264 288 -285 320 -285 32 0 55 20 300 265
l264 264 82 -79 c70 -68 87 -80 116 -80 36 0 72 20 88 49 5 10 27 125 49 255
44 261 43 284 -10 311 -37 20 -49 19 -308 -25z m189 -137 c0 -10 -7 -58 -15
-108 -27 -156 -12 -153 -131 -34 -57 57 -104 106 -104 110 0 5 131 31 243 48
4 0 7 -7 7 -16z"/>
<path d="M3662 3139 c-87 -43 -102 -96 -102 -365 l0 -184 -93 0 c-110 0 -151
-10 -190 -47 -55 -53 -57 -64 -57 -295 0 -202 1 -215 23 -252 14 -25 39 -48
66 -63 38 -20 58 -23 153 -23 72 0 120 5 143 14 31 13 39 13 70 0 48 -20 222
-19 273 1 34 14 42 14 75 0 25 -10 69 -15 139 -15 152 1 208 33 237 135 13 49
15 672 1 729 -10 45 -34 81 -74 110 -23 18 -45 21 -147 24 l-119 4 0 53 c0 65
-12 101 -48 139 -43 46 -80 56 -199 56 -90 0 -115 -4 -151 -21z m243 -604 l0
-470 -90 0 -90 0 -3 460 c-1 253 0 466 3 473 3 9 28 12 92 10 l88 -3 0 -470z
m349 209 c3 -9 6 -161 6 -339 0 -265 -3 -325 -14 -334 -9 -8 -45 -11 -98 -9
l-83 3 -3 335 c-1 184 0 341 3 347 3 9 31 13 94 13 72 0 90 -3 95 -16z m-699
-494 l0 -185 -90 0 -90 0 -3 175 c-1 96 0 180 3 188 3 9 27 12 92 10 l88 -3 0
-185z"/>
</g>
</svg>
