<?xml version="1.0" standalone="no"?>
<!DOCTYPE svg PUBLIC "-//W3C//DTD SVG 20010904//EN"
 "http://www.w3.org/TR/2001/REC-SVG-20010904/DTD/svg10.dtd">
<svg version="1.0" xmlns="http://www.w3.org/2000/svg"
 width="512.000000pt" height="512.000000pt" viewBox="0 0 512.000000 512.000000"
 preserveAspectRatio="xMidYMid meet">

<g transform="translate(0.000000,512.000000) scale(0.100000,-0.100000)"
fill="#dc2626" stroke="none">
<path d="M205 5102 c-99 -34 -174 -117 -195 -215 -8 -37 -10 -489 -8 -1577 l3
-1525 21 -46 c28 -60 93 -125 153 -152 37 -17 70 -22 173 -25 l126 -4 4 -126
c4 -148 20 -194 88 -262 82 -82 93 -85 443 -88 l307 -3 0 -317 c0 -249 3 -330
15 -375 48 -186 193 -328 377 -372 94 -22 2922 -22 3016 0 189 45 343 201 382
389 7 34 10 374 8 1051 -3 999 -3 1000 -24 1046 -28 60 -93 125 -153 153 -45
20 -59 21 -512 24 l-467 3 -4 142 c-3 129 -6 147 -32 203 -34 77 -102 144
-181 181 -59 28 -63 28 -282 31 l-222 4 -3 586 c-3 576 -3 588 -24 633 -28 60
-93 125 -153 152 -37 17 -70 22 -173 25 l-126 4 -4 126 c-3 103 -8 136 -25
173 -27 60 -92 125 -152 153 l-46 21 -1140 2 c-1061 2 -1143 1 -1190 -15z
m2322 -215 c27 -26 28 -33 31 -137 l4 -110 -682 0 c-571 0 -685 -2 -708 -14
-41 -22 -669 -657 -681 -689 -7 -18 -11 -164 -11 -403 0 -399 2 -418 49 -444
25 -13 77 -13 102 0 46 25 49 49 49 389 l0 320 213 3 c208 3 213 4 263 30 66
35 117 92 143 162 19 51 21 78 21 252 l0 194 830 -2 830 -3 27 -28 28 -27 3
-569 2 -569 -142 -4 c-131 -3 -148 -6 -203 -31 -78 -36 -146 -104 -181 -181
-26 -56 -29 -74 -32 -203 l-4 -142 -467 -3 c-453 -3 -467 -4 -512 -24 -60 -28
-125 -93 -153 -153 -21 -45 -21 -56 -24 -634 l-3 -588 -289 3 -290 3 -27 28
-28 27 -5 506 -5 506 -34 30 c-28 25 -39 29 -69 24 -20 -3 -47 -17 -61 -31
l-26 -25 -3 -296 -3 -296 -109 4 c-104 3 -111 4 -137 31 l-28 27 0 1519 c0
1505 0 1519 20 1541 11 12 29 26 40 31 11 4 518 7 1127 6 l1108 -2 27 -28z
m-1412 -815 c-3 -13 -18 -35 -32 -48 -24 -22 -33 -24 -142 -24 l-116 0 145
145 145 145 3 -97 c2 -54 0 -109 -3 -121z m2571 -1058 c62 -46 69 -64 72 -205
l4 -129 -541 0 -541 0 0 114 c0 121 8 156 43 195 47 50 51 51 509 48 413 -2
427 -3 454 -23z m1200 -568 l34 -34 0 -326 0 -326 -640 0 -640 0 0 66 c0 62
-2 68 -34 100 l-34 34 -352 0 -352 0 -34 -34 c-32 -32 -34 -38 -34 -100 l0
-66 -640 0 -640 0 0 326 0 326 34 34 34 34 1632 0 1632 0 34 -34z m-1446 -833
c0 -172 -14 -215 -83 -261 -37 -25 -49 -27 -137 -27 -88 0 -100 2 -137 27 -69
46 -83 89 -83 261 l0 147 220 0 220 0 0 -147z m-640 -101 c0 -111 59 -238 140
-302 21 -17 65 -43 97 -58 53 -25 68 -27 183 -27 115 0 130 2 183 27 32 15 76
41 97 58 81 64 140 191 140 302 l0 48 640 0 641 0 -3 -567 c-3 -557 -3 -569
-24 -614 -28 -60 -93 -125 -153 -153 l-46 -21 -1475 0 -1475 0 -46 21 c-60 28
-125 93 -153 153 -21 45 -21 57 -24 614 l-3 567 641 0 640 0 0 -48z"/>
<path d="M1835 3993 c-54 -13 -89 -87 -65 -134 31 -60 20 -59 440 -59 350 0
387 2 406 18 51 41 57 97 15 144 l-29 33 -374 2 c-205 0 -382 -1 -393 -4z"/>
<path d="M1180 3583 c-48 -24 -66 -64 -51 -113 22 -74 -21 -70 761 -70 462 0
708 4 721 10 24 13 49 61 49 94 0 14 -13 40 -29 58 l-29 33 -694 3 c-645 2
-695 1 -728 -15z"/>
<path d="M1183 3186 c-46 -21 -68 -69 -54 -117 21 -70 16 -69 430 -69 369 0
370 0 396 23 17 14 28 36 32 63 5 36 1 46 -25 75 l-30 34 -359 2 c-290 2 -364
0 -390 -11z"/>
<path d="M515 2786 c-32 -32 -40 -69 -25 -107 17 -39 46 -59 90 -59 44 0 73
20 90 59 26 64 -20 131 -90 131 -30 0 -47 -6 -65 -24z"/>
<path d="M3470 587 c-38 -18 -63 -77 -50 -113 16 -42 39 -63 75 -70 111 -21
159 133 58 185 -28 14 -52 14 -83 -2z"/>
<path d="M3865 588 c-58 -32 -73 -105 -31 -151 13 -14 35 -29 48 -32 12 -3
193 -5 400 -3 l378 3 25 26 c14 14 28 42 32 62 5 32 1 41 -30 72 l-35 35 -384
0 c-259 -1 -389 -4 -403 -12z"/>
</g>
</svg>
