<?xml version="1.0" standalone="no"?>
<!DOCTYPE svg PUBLIC "-//W3C//DTD SVG 20010904//EN"
 "http://www.w3.org/TR/2001/REC-SVG-20010904/DTD/svg10.dtd">
<svg version="1.0" xmlns="http://www.w3.org/2000/svg"
 width="512.000000pt" height="512.000000pt" viewBox="0 0 512.000000 512.000000"
 preserveAspectRatio="xMidYMid meet">

<g transform="translate(0.000000,512.000000) scale(0.100000,-0.100000)"
fill="#dc2626" stroke="none">
<path d="M3625 5015 l-25 -24 0 -671 0 -671 25 -24 24 -25 671 0 671 0 24 25
25 24 0 671 0 671 -25 24 -24 25 -671 0 -671 0 -24 -25z m455 -350 c0 -216 0
-216 25 -240 32 -32 55 -31 144 6 l74 31 70 -31 c84 -37 110 -39 142 -6 25 24
25 24 25 240 l0 215 160 0 160 0 0 -560 0 -560 -560 0 -560 0 0 560 0 560 160
0 160 0 0 -215z m320 76 l0 -139 -40 15 c-36 15 -44 15 -80 0 l-40 -15 0 139
0 139 80 0 80 0 0 -139z"/>
<path d="M2301 4704 c-530 -64 -1044 -341 -1384 -744 -299 -355 -467 -766
-512 -1252 l-7 -68 -124 0 c-125 0 -156 -7 -181 -39 -28 -36 -13 -67 162 -328
133 -200 181 -264 200 -269 59 -15 68 -5 250 269 187 281 195 298 150 342 -23
24 -29 25 -160 25 l-137 0 7 68 c36 364 144 679 332 959 456 683 1278 1018
2082 848 63 -14 116 -23 118 -21 10 10 42 141 35 148 -12 12 -249 56 -361 68
-136 13 -329 11 -470 -6z m-1733 -2349 c-46 -68 -85 -124 -88 -124 -3 0 -42
56 -88 124 l-82 125 170 0 170 0 -82 -125z"/>
<path d="M2287 3915 c-283 -46 -521 -167 -718 -364 -388 -388 -487 -970 -249
-1466 62 -129 137 -233 250 -345 188 -189 395 -300 660 -357 118 -25 371 -25
491 1 l87 18 63 -52 c264 -213 624 -196 860 39 235 236 252 596 39 860 l-52
63 18 87 c26 120 26 373 1 491 -57 265 -168 472 -357 660 -185 186 -379 292
-640 351 -116 26 -337 33 -453 14z m457 -189 c55 -14 104 -30 109 -35 15 -15
-149 -26 -373 -26 -214 0 -384 11 -375 25 6 10 146 48 222 60 103 16 306 4
417 -24z m-811 -172 c20 -4 37 -10 37 -14 0 -4 -15 -40 -34 -81 -18 -41 -44
-105 -56 -142 l-22 -69 -37 7 c-72 12 -221 58 -221 67 0 41 240 253 275 243
11 -3 37 -8 58 -11z m1253 -48 c77 -62 174 -164 174 -184 0 -9 -149 -55 -221
-67 l-37 -7 -22 69 c-12 37 -38 101 -56 142 -19 41 -34 77 -34 81 0 5 65 23
105 29 6 0 47 -28 91 -63z m-873 -2 l87 -6 0 -155 0 -156 -102 7 c-119 8 -270
25 -277 31 -10 11 90 243 121 282 6 8 25 11 47 8 20 -2 75 -7 124 -11z m539
-59 c41 -77 94 -213 86 -221 -7 -6 -142 -21 -275 -30 l-103 -7 0 156 0 155 88
7 c48 3 96 8 107 9 50 9 60 1 97 -69z m-1301 -281 c24 -8 93 -28 153 -44 59
-16 110 -30 111 -32 1 -2 -3 -37 -11 -78 -7 -41 -16 -123 -20 -182 l-7 -108
-207 0 -207 0 9 68 c12 94 53 234 93 320 19 39 36 72 38 72 3 0 24 -7 48 -16z
m1944 -56 c40 -86 81 -226 93 -320 l9 -68 -207 0 -207 0 -7 108 c-4 59 -13
141 -21 182 -7 41 -12 76 -10 78 1 2 52 16 111 32 60 16 127 35 149 44 22 8
44 15 48 15 4 1 23 -32 42 -71z m-1275 -68 c63 -5 130 -10 148 -10 l32 0 0
-155 0 -155 -232 0 -231 0 6 93 c4 50 12 127 19 171 l12 78 65 -6 c37 -4 118
-11 181 -16z m779 -57 c6 -43 14 -120 18 -170 l6 -93 -231 0 -232 0 0 154 0
154 113 7 c61 4 141 11 177 15 36 4 81 8 101 9 l35 1 13 -77z m-1219 -480 c0
-59 24 -259 35 -294 5 -14 0 -20 -22 -24 -42 -9 -255 -71 -275 -79 -15 -7 -24
5 -53 65 -42 91 -82 228 -93 320 l-8 69 208 0 208 0 0 -57z m620 -96 l0 -154
-172 -13 c-95 -8 -191 -14 -213 -14 l-40 -1 -12 70 c-7 39 -15 114 -19 168
l-7 97 231 0 232 0 0 -153z m620 89 l0 -64 -84 -56 c-45 -30 -100 -74 -120
-97 l-38 -41 -109 7 -109 7 0 154 0 154 230 0 230 0 0 -64z m576 47 c-2 -10
-7 -44 -11 -76 -6 -50 -9 -57 -23 -51 -102 45 -161 58 -269 58 l-113 1 0 43 0
42 211 0 c195 0 210 -1 205 -17z m-201 -238 c190 -50 330 -207 358 -401 35
-238 -121 -467 -358 -529 -251 -65 -513 94 -580 350 -89 343 237 669 580 580z
m-995 -369 l0 -154 -97 -7 c-54 -4 -111 -7 -128 -8 -27 -2 -33 4 -62 58 -33
60 -93 206 -93 224 0 14 174 35 328 40 l52 1 0 -154z m266 148 l20 -5 -19 -57
c-10 -31 -21 -99 -24 -149 l-6 -93 -38 0 -39 0 0 155 0 155 43 0 c23 0 51 -3
63 -6z m-786 -121 c13 -38 38 -101 56 -142 19 -41 34 -77 34 -80 0 -4 -26 -12
-57 -19 l-57 -12 -55 42 c-66 49 -201 185 -201 203 0 10 110 47 205 68 49 11
53 8 75 -60z m777 -349 c21 -4 33 -15 41 -37 6 -17 11 -32 9 -33 -12 -12 -202
-26 -287 -21 -101 6 -293 46 -313 66 -5 5 30 12 90 16 54 3 103 8 108 10 17 6
321 5 352 -1z"/>
<path d="M3338 1923 l-168 -168 -58 58 -58 57 -57 -58 -57 -57 93 -93 c141
-140 115 -148 373 109 l214 213 -52 53 c-29 29 -55 53 -58 53 -3 0 -80 -75
-172 -167z"/>
<path d="M4602 3107 c-35 -20 -362 -516 -362 -550 0 -16 10 -38 25 -52 23 -24
29 -25 160 -25 l136 0 -7 -67 c-35 -390 -167 -742 -387 -1040 -465 -627 -1238
-924 -2007 -772 -57 12 -114 25 -127 30 -21 8 -24 4 -43 -60 -11 -37 -20 -73
-20 -79 0 -13 47 -27 180 -52 809 -156 1639 164 2134 823 250 332 389 704 431
1150 l7 67 134 0 c130 0 136 1 159 25 15 14 25 36 25 52 0 19 -53 107 -172
286 -189 283 -204 298 -266 264z m126 -342 l82 -125 -170 0 -170 0 82 125 c46
68 85 124 88 124 3 0 42 -56 88 -124z"/>
<path d="M105 1495 l-25 -24 0 -671 0 -671 25 -24 24 -25 671 0 671 0 24 25
25 24 0 671 0 671 -25 24 -24 25 -671 0 -671 0 -24 -25z m455 -350 c0 -216 0
-216 25 -240 32 -32 55 -31 144 6 l74 31 70 -31 c84 -37 110 -39 142 -6 25 24
25 24 25 240 l0 215 160 0 160 0 0 -560 0 -560 -560 0 -560 0 0 560 0 560 160
0 160 0 0 -215z m320 76 l0 -139 -40 15 c-36 15 -44 15 -80 0 l-40 -15 0 139
0 139 80 0 80 0 0 -139z"/>
</g>
</svg>
