<?xml version="1.0" standalone="no"?>
<!DOCTYPE svg PUBLIC "-//W3C//DTD SVG 20010904//EN"
 "http://www.w3.org/TR/2001/REC-SVG-20010904/DTD/svg10.dtd">
<svg version="1.0" xmlns="http://www.w3.org/2000/svg"
 width="512.000000pt" height="512.000000pt" viewBox="0 0 512.000000 512.000000"
 preserveAspectRatio="xMidYMid meet">

<g transform="translate(0.000000,512.000000) scale(0.100000,-0.100000)"
fill="#dc2626" stroke="none">
<path d="M105 5106 c-42 -18 -93 -79 -100 -118 -3 -18 -4 -999 -3 -2179 l3
-2146 29 -37 c39 -52 95 -76 179 -76 l67 0 0 -65 c0 -71 18 -126 53 -163 36
-38 57 -46 147 -52 l85 -5 5 -80 c6 -95 27 -132 93 -164 43 -21 47 -21 1248
-21 l1204 0 367 368 368 367 0 278 0 277 88 0 c73 0 92 3 105 18 24 27 22 85
-4 108 -20 18 -45 19 -496 22 l-474 3 6 22 c11 37 59 90 110 122 l48 30 547 0
547 0 49 -30 c42 -26 114 -111 114 -135 0 -4 -29 -10 -64 -12 -80 -5 -106 -24
-106 -78 0 -62 18 -70 162 -70 157 0 171 8 169 91 -3 152 -93 283 -240 353
-65 30 -69 31 -238 34 l-173 4 0 824 0 824 280 0 c154 0 280 -2 280 -4 0 -2
-76 -214 -170 -471 -185 -509 -186 -512 -151 -624 78 -251 348 -378 601 -282
143 55 257 206 276 366 7 53 0 73 -187 587 -126 348 -201 541 -216 556 -21 21
-28 22 -217 22 l-194 0 -7 41 c-4 22 -25 76 -46 120 -75 148 -203 246 -371
283 l-27 6 -3 218 -3 219 -29 37 c-39 52 -95 76 -177 76 l-66 0 -5 74 c-9 132
-64 186 -199 194 l-79 5 0 37 c0 63 -19 140 -41 172 -12 17 -40 39 -63 49 -39
18 -99 19 -1546 18 -1222 0 -1511 -2 -1535 -13z m3025 -155 c5 -11 10 -40 10
-65 l0 -46 -1368 -2 -1367 -3 -37 -23 c-20 -13 -47 -40 -60 -60 l-23 -37 0
-432 c0 -474 -2 -456 60 -469 22 -4 38 0 58 16 l27 21 0 408 c0 303 3 410 12
419 17 17 2949 17 2966 0 7 -7 12 -34 12 -60 l0 -48 -1368 -2 -1368 -3 -41
-27 c-80 -53 -73 145 -73 -2107 l0 -2012 -67 3 -68 3 -5 1563 c-5 1533 -5
1564 -24 1578 -33 23 -82 18 -105 -12 l-21 -27 0 -1414 0 -1414 -62 3 -63 3
-3 2120 c-1 1166 0 2126 3 2133 3 9 310 12 1484 12 1453 0 1480 0 1491 -19z
m568 -733 l2 -196 -57 -17 c-183 -53 -324 -194 -370 -369 l-18 -66 -192 0
c-185 0 -193 -1 -217 -22 -32 -30 -406 -1055 -406 -1114 1 -199 173 -390 383
-424 248 -39 495 151 513 396 l5 69 -164 450 c-90 248 -167 460 -171 473 l-7
22 280 0 281 0 0 -825 0 -825 -155 0 c-131 0 -165 -3 -217 -21 -149 -50 -253
-172 -278 -326 -10 -62 -6 -88 18 -115 14 -17 46 -18 394 -18 l378 0 0 -220 0
-220 -262 0 c-150 0 -279 -5 -300 -10 -48 -14 -97 -55 -114 -97 -11 -25 -14
-99 -14 -313 l0 -280 -1142 2 -1143 3 -3 2120 c-1 1166 0 2126 3 2133 3 10
306 12 1487 10 l1483 -3 3 -197z m245 -383 c92 -46 171 -140 202 -242 l6 -23
-370 0 c-290 0 -371 3 -371 13 0 21 49 118 76 151 41 48 121 104 172 121 31
10 77 14 137 12 75 -3 99 -8 148 -32z m-93 -1240 l0 -825 -70 0 -70 0 0 825 0
825 70 0 70 0 0 -825z m-823 302 l131 -362 -134 -3 c-74 -1 -194 -1 -268 0
l-133 3 131 362 c72 200 133 363 136 363 3 0 64 -163 137 -363z m1782 -12
l127 -350 -264 -3 c-146 -1 -266 -1 -268 1 -2 2 56 166 129 366 88 241 135
358 141 349 4 -8 65 -171 135 -363z m-1635 -527 c-35 -117 -156 -202 -284
-202 -72 0 -153 31 -201 76 -32 29 -74 94 -84 126 l-6 22 291 0 291 0 -7 -22z
m1786 18 c0 -21 -40 -88 -76 -126 -109 -116 -277 -126 -411 -24 -32 25 -93
117 -93 142 0 9 65 12 290 12 160 0 290 -2 290 -4z m-1581 -1894 l-214 -218
-3 210 c-2 161 1 211 10 218 7 4 105 8 217 8 l203 0 -213 -218z"/>
<path d="M1161 3744 c-24 -31 -26 -43 -9 -79 7 -16 24 -29 47 -36 24 -6 254
-9 679 -7 l644 3 19 24 c25 30 24 76 -1 101 -20 20 -33 20 -689 20 l-670 0
-20 -26z"/>
<path d="M1160 3163 c-26 -33 -21 -79 11 -106 20 -16 57 -17 570 -15 601 3
572 0 585 63 4 22 0 38 -16 58 l-21 27 -554 0 -554 0 -21 -27z"/>
<path d="M1169 2591 c-17 -13 -23 -29 -23 -56 0 -27 6 -43 23 -56 22 -18 49
-19 481 -19 432 0 459 1 481 19 29 23 31 81 4 111 -18 20 -27 20 -480 20 -437
0 -464 -1 -486 -19z"/>
<path d="M1171 2013 c-32 -27 -37 -73 -11 -106 l21 -27 475 0 c461 0 475 1
494 20 12 12 20 33 20 55 0 22 -8 43 -20 55 -19 19 -33 20 -489 20 -432 0
-470 -1 -490 -17z"/>
<path d="M1190 1439 c-32 -13 -40 -26 -40 -70 0 -73 -40 -69 693 -69 582 0
657 2 671 16 39 38 28 106 -20 124 -34 13 -1270 12 -1304 -1z"/>
<path d="M1167 842 c-27 -30 -22 -87 10 -112 26 -20 29 -21 666 -18 l639 3 19
24 c23 28 24 69 3 99 l-15 22 -653 0 c-620 0 -654 -1 -669 -18z"/>
</g>
</svg>
