<svg xmlns="http://www.w3.org/2000/svg" enable-background="new 0 0 100 100" viewBox="0 0 100 100"><symbol id="a" viewBox="0 -24 360 24"><rect width="360" height="24" y="-24" fill="#dc2626" fill-opacity="0"/><rect width="40" height="16" x="312" y="-21" fill="none" opacity=".9"/><path fill="#dc2626" d="M266-19l8.8,10.9C274.5-7.8,271.1-5,266-5s-8.5-2.8-8.8-3.1L266-19L266-19L266-19L266-19L266-19z" opacity=".9"/><rect width="16" height="16" x="258" y="-20" fill="none"/><polygon fill="#dc2626" points="277 -19 291 -19 291 -5" opacity=".9"/><rect width="16" height="16" x="276" y="-20" fill="none"/><rect width="16" height="16" x="296" y="-20" fill="none"/><path fill="#dc2626" d="M306-6v1h-3v-1h-3v-13h9v13H306z" opacity=".9"/></symbol><path fill="#dc2626" d="M79,57.5c0.3,0,0.5-0.2,0.5-0.5v-3c0-0.3-0.2-0.5-0.5-0.5h-1.5V47c0-0.3-0.2-0.5-0.5-0.5h-0.5v-3.6v-1.4H77   c0.3,0,0.5-0.2,0.5-0.5s-0.2-0.5-0.5-0.5h-0.5v-0.8c0-1.1-0.5-2.1-1.5-2.7l-0.5-0.3V35c0-0.3-0.2-0.5-0.5-0.5s-0.5,0.2-0.5,0.5v1.7   L73,37.1c-0.9,0.6-1.5,1.6-1.5,2.7v0.8H71c-0.3,0-0.5,0.2-0.5,0.5s0.2,0.5,0.5,0.5h0.5v1.4v0.5c-0.1,0-0.1-0.1-0.2-0.1L71,43   c0,0,0,0,0,0v-0.5c0-0.3-0.2-0.5-0.5-0.5S70,42.2,70,42.5V43c0,0,0,0,0,0l-0.4,0.2c-0.3,0.2-0.5,0.4-0.6,0.6   c-0.2-0.2-0.4-0.5-0.7-0.6L68,43c0,0,0,0,0,0v-0.5c0-0.3-0.2-0.5-0.5-0.5S67,42.2,67,42.5V43c0,0,0,0,0,0l-0.4,0.2   c-0.3,0.2-0.5,0.4-0.6,0.6c-0.2-0.2-0.4-0.5-0.7-0.6L65,43c0,0,0,0,0,0v-0.5c0-0.3-0.2-0.5-0.5-0.5S64,42.2,64,42.5V43c0,0,0,0,0,0   l-0.4,0.2c-0.3,0.2-0.5,0.4-0.6,0.6c-0.2-0.2-0.4-0.5-0.7-0.6L62,43c0,0,0,0,0,0v-0.5c0-0.3-0.2-0.5-0.5-0.5S61,42.2,61,42.5V43   c0,0,0,0,0,0l-0.4,0.2c-0.3,0.2-0.5,0.4-0.6,0.6c-0.2-0.2-0.4-0.5-0.7-0.6L59,43c0,0,0,0,0,0v-0.5c0-0.3-0.2-0.5-0.5-0.5   S58,42.2,58,42.5V43c0,0,0,0,0,0l-0.4,0.2c-0.7,0.5-1.1,1.2-1.1,2.1v1.1H55l0-4.2c0-1-0.6-1.9-1.6-2.2c0,0,0,0,0-0.1v-0.5   c0-0.3-0.2-0.5-0.5-0.5s-0.5,0.2-0.5,0.5V40l-2,0v-0.5c0-0.3-0.2-0.5-0.5-0.5s-0.5,0.2-0.5,0.5V40l-2,0v-0.5c0-0.3-0.2-0.5-0.5-0.5   s-0.5,0.2-0.5,0.5V40c0,0,0,0.1,0,0.1c-0.9,0.4-1.5,1.2-1.5,2.2l0,2.9c0,0,0,0.1,0,0.1v1.1h-1.5v-1.1c0-0.9-0.4-1.6-1.2-2.1L42,43   c0,0,0,0,0,0v-0.5c0-0.3-0.2-0.5-0.5-0.5S41,42.2,41,42.5V43c0,0,0,0,0,0l-0.4,0.2c-0.3,0.2-0.5,0.4-0.6,0.6   c-0.2-0.2-0.4-0.5-0.7-0.6L39,43c0,0,0,0,0,0v-0.5c0-0.3-0.2-0.5-0.5-0.5S38,42.2,38,42.5V43c0,0,0,0,0,0l-0.4,0.2   c-0.3,0.2-0.5,0.4-0.6,0.6c-0.2-0.2-0.4-0.5-0.7-0.6L36,43c0,0,0,0,0,0v-0.5c0-0.3-0.2-0.5-0.5-0.5S35,42.2,35,42.5V43c0,0,0,0,0,0   l-0.4,0.2c-0.3,0.2-0.5,0.4-0.6,0.6c-0.2-0.2-0.4-0.5-0.7-0.6L33,43c0,0,0,0,0,0v-0.5c0-0.3-0.2-0.5-0.5-0.5S32,42.2,32,42.5V43   c0,0,0,0,0,0l-0.4,0.2c-0.3,0.2-0.5,0.4-0.6,0.6c-0.2-0.2-0.4-0.5-0.7-0.6L30,43c0,0,0,0,0,0v-0.5c0-0.3-0.2-0.5-0.5-0.5   S29,42.2,29,42.5V43c0,0,0,0,0,0l-0.4,0.2c-0.1,0-0.1,0.1-0.1,0.1v-0.5v-1.4H29c0.3,0,0.5-0.2,0.5-0.5s-0.2-0.5-0.5-0.5h-0.5v-0.8   c0-1.1-0.5-2.1-1.5-2.7l-0.5-0.3V35c0-0.3-0.2-0.5-0.5-0.5s-0.5,0.2-0.5,0.5v1.7L25,37.1c-0.9,0.6-1.5,1.6-1.5,2.7v0.8H23   c-0.3,0-0.5,0.2-0.5,0.5s0.2,0.5,0.5,0.5h0.5v1.4v3.6H23c-0.3,0-0.5,0.2-0.5,0.5v6.5H21c-0.3,0-0.5,0.2-0.5,0.5v3   c0,0.3,0.2,0.5,0.5,0.5h1.5v24H21c-0.3,0-0.5,0.2-0.5,0.5s0.2,0.5,0.5,0.5h2h6h10h6h10h6h10h6h2c0.3,0,0.5-0.2,0.5-0.5   s-0.2-0.5-0.5-0.5h-1.5v-24H79z M73.5,37.9l0.5-0.3l0.5,0.3c0.6,0.4,1,1.1,1,1.8v0.8h-3v-0.8C72.5,39,72.9,38.3,73.5,37.9z    M75.5,41.5v1.4v3.6h-1V44c0-0.3-0.2-0.5-0.5-0.5s-0.5,0.2-0.5,0.5v2.5h-1v-1.1v-2.5v-1.4H75.5z M70.2,44.1l0.3-0.2l0.3,0.2   c0.4,0.3,0.7,0.7,0.7,1.3v1.1h-2v-1.1C69.5,44.8,69.8,44.4,70.2,44.1z M67.2,44.1l0.3-0.2l0.3,0.2c0.4,0.3,0.7,0.7,0.7,1.3v0v1.1   h-2v-1.1C66.5,44.8,66.8,44.4,67.2,44.1z M64.2,44.1l0.3-0.2l0.3,0.2c0.4,0.3,0.7,0.7,0.7,1.3v0v1.1h-2v-1.1   C63.5,44.8,63.8,44.4,64.2,44.1z M61.2,44.1l0.3-0.2l0.3,0.2c0.4,0.3,0.7,0.7,0.7,1.3v0v1.1h-2v-1.1C60.5,44.8,60.8,44.4,61.2,44.1   z M57.5,45.4c0-0.5,0.3-1,0.7-1.3l0.3-0.2l0.3,0.2c0.4,0.3,0.7,0.7,0.7,1.3v0v1.1h-2V45.4z M49,46.5v-1.1c0-0.5,0.3-1,0.7-1.3   l0.3-0.2l0.3,0.2c0.4,0.3,0.7,0.7,0.7,1.3v0v1.1H49z M46,46.5l0-1.3c0-0.5,0.3-0.9,0.7-1.1l0.3-0.2l0.3,0.2   c0.4,0.3,0.7,0.7,0.7,1.3v0v1.1H46z M52.6,44.1l0.3-0.2l0.3,0.2c0.4,0.3,0.7,0.7,0.7,1.3v1.1h-2v-1.1C52,44.8,52.2,44.4,52.6,44.1z    M47,41l5.9,0c0.6,0.2,1.1,0.7,1.1,1.3l0,1.1c-0.1-0.1-0.1-0.1-0.2-0.2L53.4,43c0,0,0,0,0,0v-0.5c0-0.3-0.2-0.5-0.5-0.5   s-0.5,0.2-0.5,0.5V43c0,0,0,0,0,0l-0.4,0.2c-0.3,0.2-0.5,0.4-0.6,0.6c-0.2-0.2-0.4-0.5-0.7-0.6L50.4,43c0,0,0,0,0,0v-0.5   c0-0.3-0.2-0.5-0.5-0.5s-0.5,0.2-0.5,0.5V43c0,0,0,0,0,0l-0.4,0.2c-0.3,0.2-0.5,0.4-0.6,0.6c-0.2-0.2-0.4-0.5-0.7-0.6L47.4,43   c0,0,0,0,0,0v-0.5c0-0.3-0.2-0.5-0.5-0.5s-0.5,0.2-0.5,0.5V43c0,0,0,0,0,0l-0.4,0.2c0,0-0.1,0.1-0.1,0.1l0-1   C46,41.7,46.4,41.1,47,41z M41.2,44.1l0.3-0.2l0.3,0.2c0.4,0.3,0.7,0.7,0.7,1.3v1.1h-2v-1.1C40.5,44.8,40.8,44.4,41.2,44.1z    M38.2,44.1l0.3-0.2l0.3,0.2c0.4,0.3,0.7,0.7,0.7,1.3v0v1.1h-2v-1.1C37.5,44.8,37.8,44.4,38.2,44.1z M35.2,44.1l0.3-0.2l0.3,0.2   c0.4,0.3,0.7,0.7,0.7,1.3v0v1.1h-2v-1.1C34.5,44.8,34.8,44.4,35.2,44.1z M32.2,44.1l0.3-0.2l0.3,0.2c0.4,0.3,0.7,0.7,0.7,1.3v0v1.1   h-2v-1.1C31.5,44.8,31.8,44.4,32.2,44.1z M29.2,44.1l0.3-0.2l0.3,0.2c0.4,0.3,0.7,0.7,0.7,1.3v0v1.1h-2v-1.1   C28.5,44.8,28.8,44.4,29.2,44.1z M25.5,37.9l0.5-0.3l0.5,0.3c0.6,0.4,1,1.1,1,1.8v0.8h-3v-0.8C24.5,39,24.9,38.3,25.5,37.9z    M24.5,42.9v-1.4h3v1.4v2.5v1.1h-1V44c0-0.3-0.2-0.5-0.5-0.5s-0.5,0.2-0.5,0.5v2.5h-1V42.9z M23.5,47.5H24h4h44h4h0.5v6h-53V47.5z    M21.5,56.5v-2h57v2H71H61h-6H45h-6H29H21.5z M70.5,65.5h-9v-8h9V65.5z M52.5,81.5h-5v-8.4c0-1.2,0.6-2.3,1.6-2.9l0.9-0.6l0.9,0.6   c1,0.6,1.6,1.7,1.6,3V81.5z M51.4,69.3l-1.1-0.7c-0.2-0.1-0.4-0.1-0.5,0l-1.2,0.7c-1.3,0.8-2.1,2.2-2.1,3.8v8.4h-1v-15h9v15h-1   v-8.4C53.5,71.6,52.7,70.1,51.4,69.3z M45.5,65.5v-8h9v8H45.5z M29.5,57.5h9v8h-9V57.5z M39.5,57.5h5v8h-5V57.5z M55.5,57.5h5v8h-5   V57.5z M23.5,57.5h5v24h-5V57.5z M29.5,66.5h9v15h-1v-8.4c0-1.5-0.8-3-2.1-3.8l-1.1-0.7c-0.2-0.1-0.4-0.1-0.5,0l-1.2,0.7   c-1.3,0.8-2.1,2.2-2.1,3.8v8.4h-1V66.5z M36.5,81.5h-5v-8.4c0-1.2,0.6-2.3,1.6-2.9l0.9-0.6l0.9,0.6c1,0.6,1.6,1.7,1.6,3V81.5z    M39.5,81.5v-15h5v15H39.5z M55.5,81.5v-15h5v15H55.5z M68.5,81.5h-5v-8.4c0-1.2,0.6-2.3,1.6-2.9l0.9-0.6l0.9,0.6   c1,0.6,1.6,1.7,1.6,3V81.5z M69.5,81.5v-8.4c0-1.5-0.8-3-2.1-3.8l-1.1-0.7c-0.2-0.1-0.4-0.1-0.5,0l-1.2,0.7   c-1.3,0.8-2.1,2.2-2.1,3.8v8.4h-1v-15h9v15H69.5z M76.5,81.5h-5v-24h5V81.5z"/><path fill="#dc2626" d="M26 74.5c-.8 0-1.5.7-1.5 1.5v3c0 .3.2.5.5.5h2c.3 0 .5-.2.5-.5v-3C27.5 75.2 26.8 74.5 26 74.5zM26.5 78.5h-1V76c0-.3.2-.5.5-.5s.5.2.5.5V78.5zM26 48.5c-.8 0-1.5.7-1.5 1.5v2c0 .3.2.5.5.5h2c.3 0 .5-.2.5-.5v-2C27.5 49.2 26.8 48.5 26 48.5zM26.5 51.5h-1V50c0-.3.2-.5.5-.5s.5.2.5.5V51.5zM26 67.5c-.8 0-1.5.7-1.5 1.5v3c0 .3.2.5.5.5h2c.3 0 .5-.2.5-.5v-3C27.5 68.2 26.8 67.5 26 67.5zM26.5 71.5h-1V69c0-.3.2-.5.5-.5s.5.2.5.5V71.5zM26 59.5c-.8 0-1.5.7-1.5 1.5v3c0 .3.2.5.5.5h2c.3 0 .5-.2.5-.5v-3C27.5 60.2 26.8 59.5 26 59.5zM26.5 63.5h-1V61c0-.3.2-.5.5-.5s.5.2.5.5V63.5zM42 59.5c-.8 0-1.5.7-1.5 1.5v3c0 .3.2.5.5.5h2c.3 0 .5-.2.5-.5v-3C43.5 60.2 42.8 59.5 42 59.5zM42.5 63.5h-1V61c0-.3.2-.5.5-.5s.5.2.5.5V63.5zM32 59.5c-.8 0-1.5.7-1.5 1.5v3c0 .3.2.5.5.5h2c.3 0 .5-.2.5-.5v-3C33.5 60.2 32.8 59.5 32 59.5zM32.5 63.5h-1V61c0-.3.2-.5.5-.5.3 0 .5.2.5.5V63.5zM36 59.5c-.8 0-1.5.7-1.5 1.5v3c0 .3.2.5.5.5h2c.3 0 .5-.2.5-.5v-3C37.5 60.2 36.8 59.5 36 59.5zM36.5 63.5h-1V61c0-.3.2-.5.5-.5s.5.2.5.5V63.5zM48 59.5c-.8 0-1.5.7-1.5 1.5v3c0 .3.2.5.5.5h2c.3 0 .5-.2.5-.5v-3C49.5 60.2 48.8 59.5 48 59.5zM48.5 63.5h-1V61c0-.3.2-.5.5-.5s.5.2.5.5V63.5zM52 59.5c-.8 0-1.5.7-1.5 1.5v3c0 .3.2.5.5.5h2c.3 0 .5-.2.5-.5v-3C53.5 60.2 52.8 59.5 52 59.5zM52.5 63.5h-1V61c0-.3.2-.5.5-.5s.5.2.5.5V63.5zM67 64.5h2c.3 0 .5-.2.5-.5v-3c0-.8-.7-1.5-1.5-1.5s-1.5.7-1.5 1.5v3C66.5 64.3 66.7 64.5 67 64.5zM67.5 61c0-.3.2-.5.5-.5s.5.2.5.5v2.5h-1V61zM73 64.5h2c.3 0 .5-.2.5-.5v-3c0-.8-.7-1.5-1.5-1.5s-1.5.7-1.5 1.5v3C72.5 64.3 72.7 64.5 73 64.5zM73.5 61c0-.3.2-.5.5-.5s.5.2.5.5v2.5h-1V61zM58 59.5c-.8 0-1.5.7-1.5 1.5v3c0 .3.2.5.5.5h2c.3 0 .5-.2.5-.5v-3C59.5 60.2 58.8 59.5 58 59.5zM58.5 63.5h-1V61c0-.3.2-.5.5-.5s.5.2.5.5V63.5zM63 64.5h2c.3 0 .5-.2.5-.5v-3c0-.8-.7-1.5-1.5-1.5-.8 0-1.5.7-1.5 1.5v3C62.5 64.3 62.7 64.5 63 64.5zM63.5 61c0-.3.2-.5.5-.5.3 0 .5.2.5.5v2.5h-1V61zM42 74.5c-.8 0-1.5.7-1.5 1.5v3c0 .3.2.5.5.5h2c.3 0 .5-.2.5-.5v-3C43.5 75.2 42.8 74.5 42 74.5zM42.5 78.5h-1V76c0-.3.2-.5.5-.5s.5.2.5.5V78.5zM73 79.5h2c.3 0 .5-.2.5-.5v-3c0-.8-.7-1.5-1.5-1.5s-1.5.7-1.5 1.5v3C72.5 79.3 72.7 79.5 73 79.5zM73.5 76c0-.3.2-.5.5-.5s.5.2.5.5v2.5h-1V76zM58 74.5c-.8 0-1.5.7-1.5 1.5v3c0 .3.2.5.5.5h2c.3 0 .5-.2.5-.5v-3C59.5 75.2 58.8 74.5 58 74.5zM58.5 78.5h-1V76c0-.3.2-.5.5-.5s.5.2.5.5V78.5zM42 67.5c-.8 0-1.5.7-1.5 1.5v3c0 .3.2.5.5.5h2c.3 0 .5-.2.5-.5v-3C43.5 68.2 42.8 67.5 42 67.5zM42.5 71.5h-1V69c0-.3.2-.5.5-.5s.5.2.5.5V71.5zM73 72.5h2c.3 0 .5-.2.5-.5v-3c0-.8-.7-1.5-1.5-1.5s-1.5.7-1.5 1.5v3C72.5 72.3 72.7 72.5 73 72.5zM73.5 69c0-.3.2-.5.5-.5s.5.2.5.5v2.5h-1V69zM58 67.5c-.8 0-1.5.7-1.5 1.5v3c0 .3.2.5.5.5h2c.3 0 .5-.2.5-.5v-3C59.5 68.2 58.8 67.5 58 67.5zM58.5 71.5h-1V69c0-.3.2-.5.5-.5s.5.2.5.5V71.5zM32 48.5c-.8 0-1.5.7-1.5 1.5v2c0 .3.2.5.5.5h2c.3 0 .5-.2.5-.5v-2C33.5 49.2 32.8 48.5 32 48.5zM32.5 51.5h-1V50c0-.3.2-.5.5-.5.3 0 .5.2.5.5V51.5zM42 48.5c-.8 0-1.5.7-1.5 1.5v2c0 .3.2.5.5.5h2c.3 0 .5-.2.5-.5v-2C43.5 49.2 42.8 48.5 42 48.5zM42.5 51.5h-1V50c0-.3.2-.5.5-.5s.5.2.5.5V51.5zM52 48.5c-.8 0-1.5.7-1.5 1.5v2c0 .3.2.5.5.5h2c.3 0 .5-.2.5-.5v-2C53.5 49.2 52.8 48.5 52 48.5zM52.5 51.5h-1V50c0-.3.2-.5.5-.5s.5.2.5.5V51.5zM58 48.5c-.8 0-1.5.7-1.5 1.5v2c0 .3.2.5.5.5h2c.3 0 .5-.2.5-.5v-2C59.5 49.2 58.8 48.5 58 48.5zM58.5 51.5h-1V50c0-.3.2-.5.5-.5s.5.2.5.5V51.5zM68 48.5c-.8 0-1.5.7-1.5 1.5v2c0 .3.2.5.5.5h2c.3 0 .5-.2.5-.5v-2C69.5 49.2 68.8 48.5 68 48.5zM68.5 51.5h-1V50c0-.3.2-.5.5-.5s.5.2.5.5V51.5zM74 48.5c-.8 0-1.5.7-1.5 1.5v2c0 .3.2.5.5.5h2c.3 0 .5-.2.5-.5v-2C75.5 49.2 74.8 48.5 74 48.5zM74.5 51.5h-1V50c0-.3.2-.5.5-.5s.5.2.5.5V51.5zM64 48.5c-.8 0-1.5.7-1.5 1.5v2c0 .3.2.5.5.5h2c.3 0 .5-.2.5-.5v-2C65.5 49.2 64.8 48.5 64 48.5zM64.5 51.5h-1V50c0-.3.2-.5.5-.5.3 0 .5.2.5.5V51.5zM36 48.5c-.8 0-1.5.7-1.5 1.5v2c0 .3.2.5.5.5h2c.3 0 .5-.2.5-.5v-2C37.5 49.2 36.8 48.5 36 48.5zM36.5 51.5h-1V50c0-.3.2-.5.5-.5s.5.2.5.5V51.5zM48 48.5c-.8 0-1.5.7-1.5 1.5v2c0 .3.2.5.5.5h2c.3 0 .5-.2.5-.5v-2C49.5 49.2 48.8 48.5 48 48.5zM48.5 51.5h-1V50c0-.3.2-.5.5-.5s.5.2.5.5V51.5z"/></svg>