<?xml version="1.0" standalone="no"?>
<!DOCTYPE svg PUBLIC "-//W3C//DTD SVG 20010904//EN"
 "http://www.w3.org/TR/2001/REC-SVG-20010904/DTD/svg10.dtd">
<svg version="1.0" xmlns="http://www.w3.org/2000/svg"
 width="512.000000pt" height="512.000000pt" viewBox="0 0 512.000000 512.000000"
 preserveAspectRatio="xMidYMid meet">

<g transform="translate(0.000000,512.000000) scale(0.100000,-0.100000)"
fill="#dc2626" stroke="none">
<path d="M4342 5075 c-312 -40 -337 -45 -380 -72 -208 -128 -103 -447 141
-431 l55 3 -19 -26 c-10 -15 -94 -104 -186 -199 -580 -597 -1259 -1043 -2058
-1350 -483 -185 -1050 -320 -1518 -360 -128 -11 -164 -22 -215 -65 -102 -85
-104 -253 -5 -347 64 -61 148 -72 365 -48 593 65 1273 251 1853 508 346 153
852 435 957 533 43 41 47 65 17 103 -35 44 -66 36 -213 -58 -739 -471 -1598
-790 -2466 -915 -229 -33 -357 -40 -394 -21 -66 34 -53 129 21 149 21 6 57 11
80 11 101 0 451 54 688 106 963 212 1829 634 2576 1254 161 134 547 521 677
678 111 133 119 155 77 197 -29 30 -31 30 -195 9 -109 -14 -132 -14 -156 -3
-35 17 -52 59 -38 95 19 56 37 60 396 105 320 39 339 41 363 25 14 -10 30 -28
35 -42 15 -38 13 -680 -2 -707 -28 -54 -89 -63 -132 -21 -25 26 -26 30 -26
149 0 109 -2 125 -21 149 -14 18 -30 26 -53 26 -35 0 -63 -26 -186 -170 -182
-212 -474 -494 -713 -689 -82 -67 -129 -112 -134 -129 -14 -57 32 -103 88 -89
31 8 228 168 405 329 139 126 257 244 392 392 51 56 72 74 72 60 0 -33 46
-119 78 -146 112 -94 280 -68 357 56 l30 49 0 386 c0 353 -2 389 -18 422 -42
85 -131 140 -221 138 -23 -1 -191 -21 -374 -44z"/>
<path d="M3663 3193 c-56 -11 -53 81 -53 -1545 l0 -1498 -285 0 -285 0 -2
1059 c-3 1025 -4 1060 -22 1080 -19 21 -25 21 -456 21 -431 0 -437 0 -456 -21
-18 -20 -19 -55 -22 -1080 l-2 -1059 -285 0 -285 0 0 860 c0 847 0 860 -20
880 -19 19 -33 20 -454 20 l-435 0 -20 -26 c-21 -27 -21 -32 -21 -880 l0 -854
-255 0 -256 0 -24 -25 c-32 -31 -32 -69 0 -100 l24 -25 2511 0 2511 0 24 25
c14 13 25 36 25 50 0 14 -11 37 -25 50 l-24 25 -256 0 -255 0 0 1490 c0 1092
-3 1496 -11 1514 -7 14 -25 30 -42 36 -29 10 -794 13 -844 3z m747 -1593 l0
-1450 -325 0 -325 0 0 1450 0 1450 325 0 325 0 0 -1450z m-1520 -445 l0 -1005
-330 0 -330 0 0 1005 0 1005 330 0 330 0 0 -1005z m-1530 -200 l0 -805 -325 0
-325 0 0 805 0 805 325 0 325 0 0 -805z"/>
</g>
</svg>
