<?xml version="1.0" standalone="no"?>
<!DOCTYPE svg PUBLIC "-//W3C//DTD SVG 20010904//EN"
 "http://www.w3.org/TR/2001/REC-SVG-20010904/DTD/svg10.dtd">
<svg version="1.0" xmlns="http://www.w3.org/2000/svg"
 width="512.000000pt" height="512.000000pt" viewBox="0 0 512.000000 512.000000"
 preserveAspectRatio="xMidYMid meet">

<g transform="translate(0.000000,512.000000) scale(0.100000,-0.100000)"
fill="#dc2626" stroke="none">
<path d="M2265 4465 c-102 -22 -239 -87 -274 -129 -22 -27 -18 -76 8 -98 33
-26 56 -23 146 22 104 52 179 70 290 70 103 0 210 -25 289 -68 155 -84 266
-262 266 -425 l0 -61 -27 26 c-72 67 -128 66 -213 -4 l-35 -28 -206 0 c-224 0
-285 -7 -366 -45 -63 -28 -155 -112 -190 -173 -34 -58 -63 -154 -63 -209 0
-44 0 -44 -32 -41 -31 3 -34 7 -52 68 -14 50 -19 99 -20 210 -1 166 15 240 85
392 37 80 39 90 27 115 -16 34 -58 50 -95 37 -33 -11 -81 -102 -122 -229 -65
-200 -67 -412 -6 -603 l23 -74 -24 -35 c-105 -155 -9 -366 182 -397 40 -7 41
-9 53 -59 23 -103 89 -215 178 -306 l83 -84 0 -68 c0 -59 -3 -70 -20 -79 -24
-13 -158 -126 -178 -150 -7 -8 -17 -33 -24 -55 -10 -37 -24 -49 -187 -160
-108 -73 -203 -147 -246 -190 l-70 -71 -70 28 c-38 15 -107 40 -152 55 -79 26
-83 29 -83 56 0 24 13 42 65 89 66 61 127 162 141 234 6 31 9 34 41 34 90 0
185 62 218 142 26 64 23 147 -8 203 -25 44 -25 48 -20 192 6 178 -6 245 -69
367 -109 209 -335 346 -572 346 -100 0 -173 -17 -296 -68 -52 -22 -118 -47
-147 -56 -167 -55 -296 -214 -310 -384 -4 -45 1 -120 12 -206 l19 -135 -27
-53 c-79 -156 32 -348 201 -348 l39 0 19 -62 c23 -76 77 -162 132 -209 36 -31
42 -42 42 -75 l0 -39 -98 -33 c-218 -75 -267 -111 -243 -175 20 -51 62 -59
142 -24 30 13 92 37 137 52 79 27 85 28 94 11 64 -114 210 -166 326 -116 48
21 123 88 134 121 4 11 20 9 89 -15 46 -16 105 -37 130 -48 l46 -19 -20 -67
c-18 -60 -20 -96 -21 -360 l-1 -294 24 -19 c28 -22 69 -25 97 -5 18 13 19 32
25 308 5 285 6 295 31 362 32 84 88 166 142 211 51 41 347 245 357 245 3 0 39
-43 78 -95 104 -138 130 -146 291 -95 52 16 96 30 97 30 1 0 4 -218 5 -484 3
-460 4 -485 22 -505 25 -27 79 -28 106 -1 19 19 20 33 20 506 0 458 1 485 18
480 113 -36 191 -56 215 -56 55 0 91 28 163 125 38 52 73 95 77 95 5 0 84 -52
177 -115 175 -121 252 -191 290 -265 53 -104 54 -108 60 -423 l5 -299 24 -19
c30 -25 76 -24 102 2 20 20 20 28 16 327 -2 169 -6 316 -8 326 -3 17 16 28
126 73 82 34 131 49 134 42 9 -28 71 -84 116 -105 101 -47 224 -17 291 72 l31
41 130 -51 c138 -56 185 -85 234 -148 52 -66 71 -129 78 -266 7 -138 14 -152
77 -152 54 0 74 36 74 134 0 188 -46 314 -153 420 -71 72 -100 89 -282 162
l-130 52 -3 35 c-2 28 1 38 19 47 12 7 40 29 63 50 39 36 44 37 129 43 76 4
100 10 161 41 153 75 257 237 256 401 -1 77 -15 127 -90 302 -39 88 -76 192
-84 230 -31 145 -85 250 -183 354 -130 137 -287 209 -480 217 -140 6 -232 -13
-352 -73 -105 -53 -202 -138 -265 -234 -59 -88 -83 -146 -107 -252 -10 -49
-48 -154 -89 -247 -81 -189 -99 -265 -82 -362 39 -218 224 -380 434 -380 54 0
64 -3 97 -33 20 -18 46 -40 59 -49 19 -13 23 -23 20 -53 l-3 -37 -145 -59
c-129 -52 -146 -57 -155 -42 -27 44 -106 135 -145 168 -24 20 -119 88 -212
151 -131 90 -168 120 -168 137 0 39 -36 83 -129 158 l-91 74 0 71 0 71 50 42
c90 76 178 222 210 348 10 40 12 42 65 53 103 21 183 100 204 202 14 61 7 106
-25 171 l-23 47 30 213 c33 231 33 294 -1 393 -56 163 -189 286 -356 329 -39
10 -64 22 -73 37 -8 13 -49 57 -90 99 -88 87 -194 146 -325 179 -93 23 -257
26 -351 5z m911 -514 c62 -45 101 -92 128 -151 38 -84 40 -129 17 -301 -30
-218 -27 -206 -60 -201 -27 4 -29 8 -35 63 -9 81 -32 153 -70 224 -25 46 -30
67 -25 90 10 44 10 224 0 268 -5 20 -6 37 -1 37 4 0 25 -13 46 -29z m-238
-328 c74 -73 112 -140 131 -231 6 -31 11 -157 11 -301 0 -216 -3 -258 -20
-327 -56 -216 -234 -367 -463 -390 -241 -24 -478 148 -542 393 -22 85 -22 590
1 656 20 60 84 131 148 165 51 27 52 27 311 32 l261 5 39 33 c22 17 43 32 47
32 5 0 39 -30 76 -67z m1457 -448 c91 -24 173 -73 250 -150 84 -84 127 -165
155 -292 12 -55 47 -150 92 -253 69 -157 73 -169 73 -240 0 -93 -33 -169 -101
-229 -39 -34 -138 -81 -149 -70 -1 2 4 37 13 77 15 70 15 73 -5 100 -14 19
-31 28 -56 30 -46 4 -73 -24 -82 -86 -27 -181 -211 -315 -388 -282 -118 23
-205 90 -256 199 -25 54 -26 62 -29 281 -3 144 0 246 8 284 12 60 48 146 61
146 4 0 29 -13 56 -30 101 -62 242 -89 481 -90 l72 0 0 -99 c0 -119 14 -145
75 -145 64 0 75 24 75 168 0 210 -12 220 -290 229 -208 8 -272 21 -352 75 -22
15 -52 35 -67 44 -33 22 -89 23 -120 2 -35 -25 -99 -130 -123 -203 -19 -58
-22 -95 -26 -311 -3 -201 -1 -257 12 -314 9 -38 14 -71 11 -74 -8 -9 -92 28
-135 59 -85 61 -132 182 -112 283 6 29 40 119 75 201 36 83 76 196 90 252 14
57 41 131 59 165 64 122 207 235 344 273 68 18 217 18 289 0z m-3336 -30 c168
-44 302 -172 351 -334 16 -53 20 -89 18 -172 l-3 -104 -30 -3 c-26 -2 -32 2
-46 37 -29 68 -49 75 -249 82 -206 6 -270 24 -399 108 -84 55 -110 61 -156 32
-38 -22 -90 -119 -108 -197 -13 -58 -14 -59 -48 -59 l-34 0 -12 80 c-15 107
-15 192 1 238 34 94 111 165 215 197 31 10 90 32 131 50 41 18 95 39 120 46
61 17 184 17 249 -1z m831 -99 c0 -58 -3 -107 -8 -110 -16 -10 -71 24 -86 53
-26 50 -21 88 18 127 19 19 43 34 55 34 20 0 21 -5 21 -104z m1391 88 c37 -18
61 -71 53 -113 -7 -33 -48 -76 -81 -84 -23 -5 -23 -4 -23 104 0 69 4 109 10
109 6 0 25 -7 41 -16z m-2502 -585 c88 -33 193 -49 318 -49 l114 0 -3 -222
c-3 -221 -3 -224 -31 -280 -52 -105 -146 -168 -263 -176 -137 -9 -246 53 -306
175 l-33 67 -3 213 c-4 201 2 270 27 335 l10 27 57 -34 c32 -19 83 -44 113
-56z m-359 -249 l0 -90 -30 0 c-61 0 -100 74 -69 131 10 20 61 48 87 49 9 0
12 -24 12 -90z m1024 61 c30 -26 37 -58 22 -96 -16 -37 -42 -55 -80 -55 l-26
0 0 91 0 91 33 -7 c17 -4 40 -15 51 -24z m1356 -142 l0 -50 -122 -58 -123 -58
-117 59 -118 58 0 46 c0 45 0 46 28 39 81 -21 162 -35 202 -35 74 0 193 23
248 49 1 0 2 -22 2 -50z m-450 -230 l130 -62 0 -61 0 -61 -111 -33 c-61 -18
-112 -32 -114 -30 -1 2 -37 50 -80 107 l-78 104 54 48 c30 27 57 49 61 49 5 0
66 -28 138 -61z m612 14 c37 -29 55 -50 49 -57 -4 -6 -40 -55 -80 -109 -62
-84 -75 -96 -94 -92 -13 4 -63 19 -113 34 l-89 28 -3 56 -3 56 128 65 c70 36
133 65 138 65 6 1 36 -20 67 -46z m-2051 -333 l79 0 0 -30 c0 -67 -49 -120
-111 -120 -64 0 -109 57 -109 139 0 21 3 23 31 17 17 -3 67 -6 110 -6z m3429
-77 c0 -96 -89 -147 -156 -90 -20 18 -28 35 -31 74 l-5 52 96 -1 96 0 0 -35z"/>
<path d="M71 1304 c-47 -60 -64 -146 -69 -347 -4 -185 -3 -189 19 -213 29 -31
78 -32 105 -3 17 19 20 43 25 203 4 153 8 190 27 241 12 32 22 70 22 82 0 61
-90 86 -129 37z"/>
<path d="M1785 1235 l-25 -24 0 -226 c0 -212 1 -226 20 -245 30 -30 83 -27
109 6 20 25 21 39 21 246 l0 219 -25 24 c-13 14 -36 25 -50 25 -14 0 -37 -11
-50 -25z"/>
<path d="M3236 1239 l-26 -20 0 -230 c0 -216 1 -230 20 -249 30 -30 83 -27
110 7 20 26 21 35 18 251 -3 221 -3 224 -27 243 -30 25 -62 24 -95 -2z"/>
</g>
</svg>
